<?xml version="1.0" encoding="iso-8859-1"?>
<!-- Generator: Adobe Illustrator 19.0.0, SVG Export Plug-In . SVG Version: 6.00 Build 0)  -->
<svg version="1.1" id="Capa_1" xmlns="http://www.w3.org/2000/svg" xmlns:xlink="http://www.w3.org/1999/xlink" x="0px" y="0px"
	 viewBox="0 0 368 368" style="enable-background:new 0 0 368 368;" xml:space="preserve">
<g>
	<g>
		<path d="M360,128h-40V88c0-4.416-3.584-8-8-8h-40V40c0-4.416-3.584-8-8-8H8c-4.416,0-8,3.584-8,8v192c0,4.416,3.584,8,8,8h40
			v39.992c0,4.416,3.584,8,8,8h40V328c0,4.416,3.584,8,8,8h256c4.416,0,8-3.584,8-8V136C368,131.584,364.416,128,360,128z M16,224
			V48h240v176H16z M64,271.992V240h200c4.416,0,8-3.584,8-8V96h32v175.992H64z M352,320H112v-32.008h200c4.416,0,8-3.584,8-8V144h32
			V320z"/>
	</g>
</g>
<g>
</g>
<g>
</g>
<g>
</g>
<g>
</g>
<g>
</g>
<g>
</g>
<g>
</g>
<g>
</g>
<g>
</g>
<g>
</g>
<g>
</g>
<g>
</g>
<g>
</g>
<g>
</g>
<g>
</g>
</svg>
