<?xml version="1.0" encoding="iso-8859-1"?>
<!-- Generator: Adobe Illustrator 19.0.0, SVG Export Plug-In . SVG Version: 6.00 Build 0)  -->
<svg version="1.1" id="Capa_1" xmlns="http://www.w3.org/2000/svg" xmlns:xlink="http://www.w3.org/1999/xlink" x="0px" y="0px"
	 viewBox="0 0 368 368" style="enable-background:new 0 0 368 368;" xml:space="preserve">
<g>
	<g>
		<path d="M184,144c-22.056,0-40,17.944-40,40c0,22.056,17.944,40,40,40c22.056,0,40-17.944,40-40C224,161.944,206.056,144,184,144z
			 M184,208c-13.232,0-24-10.768-24-24s10.768-24,24-24s24,10.768,24,24S197.232,208,184,208z"/>
	</g>
</g>
<g>
	<g>
		<path d="M344,48H232h-96H24C10.768,48,0,58.768,0,72h0.72C0,78.592,0,91.888,0,120v176c0,13.232,10.776,24,24,24h320
			c13.232,0,24-10.768,24-24V120V72C368,58.768,357.232,48,344,48z M144,64h80v41.64c-0.224-0.12-0.472-0.192-0.696-0.304
			c-2.536-1.28-5.128-2.408-7.768-3.424c-0.608-0.232-1.216-0.472-1.824-0.696c-2.944-1.064-5.92-2-8.968-2.736
			c-0.16-0.04-0.328-0.064-0.496-0.104c-2.832-0.672-5.712-1.16-8.624-1.544c-0.768-0.104-1.528-0.192-2.296-0.28
			C190.248,96.224,187.144,96,184,96c-3.144,0-6.256,0.224-9.336,0.552c-0.768,0.08-1.528,0.176-2.288,0.28
			c-2.92,0.384-5.808,0.88-8.656,1.552c-0.152,0.032-0.304,0.056-0.456,0.096c-3.048,0.736-6.04,1.68-8.992,2.744
			c-0.6,0.216-1.184,0.448-1.784,0.68c-2.672,1.032-5.296,2.176-7.864,3.472c-0.2,0.104-0.424,0.168-0.624,0.272V64z
			 M140.816,126.464c1.144-0.864,2.32-1.64,3.504-2.432c0.488-0.32,0.96-0.68,1.448-0.992c0.72-0.456,1.472-0.848,2.2-1.28
			c0.96-0.56,1.912-1.144,2.896-1.656c0.336-0.176,0.688-0.32,1.024-0.488c1.392-0.696,2.784-1.384,4.208-1.984h0.008
			c5.256-2.224,10.744-3.8,16.392-4.712c0.336-0.056,0.68-0.072,1.016-0.12c1.552-0.224,3.104-0.44,4.68-0.56
			c1.928-0.16,3.864-0.24,5.808-0.24c1.944,0,3.88,0.08,5.8,0.232c1.592,0.128,3.168,0.336,4.736,0.568
			c0.32,0.048,0.64,0.064,0.96,0.112c1.848,0.296,3.688,0.672,5.504,1.112c0.032,0.008,0.056,0.008,0.088,0.016
			c1.848,0.448,3.672,0.976,5.472,1.576c1.624,0.536,3.224,1.16,4.808,1.816c0.184,0.072,0.368,0.136,0.552,0.208
			c1.288,0.544,2.552,1.168,3.808,1.792c0.472,0.232,0.96,0.44,1.432,0.68c0.88,0.464,1.736,0.992,2.6,1.488
			c0.832,0.48,1.688,0.936,2.504,1.456c0.432,0.272,0.848,0.584,1.272,0.872c1.24,0.824,2.472,1.64,3.672,2.544
			C245.504,140.184,256,161.152,256,184c0,39.696-32.304,72-72,72s-72-32.304-72-72c0-2.856,0.168-5.68,0.488-8.472
			C114.744,156.024,124.784,138.472,140.816,126.464z M16,72.048c0-0.008,0-0.032,0-0.048c0-4.408,3.584-8,8-8h104v48H16
			C16,98.544,16,72.768,16,72.048z M352,296c0,4.408-3.592,8-8,8H24c-4.408,0-8-3.592-8-8V128h100.104
			c-1.92,2.304-3.664,4.72-5.32,7.192c-0.48,0.712-0.92,1.456-1.376,2.184c-1.208,1.912-2.328,3.872-3.376,5.872
			c-0.416,0.792-0.832,1.568-1.224,2.368c-1.272,2.616-2.44,5.272-3.44,8.008c-0.04,0.112-0.096,0.216-0.128,0.32
			c-1.024,2.84-1.864,5.76-2.592,8.712c-0.208,0.856-0.384,1.72-0.568,2.584c-0.48,2.224-0.872,4.472-1.184,6.752
			c-0.12,0.896-0.256,1.792-0.352,2.696C96.216,177.752,96,180.856,96,184c0,48.52,39.48,88,88,88s88-39.48,88-88
			c0-3.144-0.216-6.248-0.536-9.32c-0.096-0.904-0.232-1.8-0.352-2.696c-0.304-2.272-0.696-4.52-1.176-6.736
			c-0.184-0.864-0.36-1.736-0.568-2.6c-0.728-2.952-1.56-5.864-2.592-8.704c-0.04-0.12-0.104-0.24-0.144-0.36
			c-1-2.72-2.16-5.36-3.416-7.96c-0.392-0.816-0.824-1.608-1.248-2.416c-1.04-1.976-2.152-3.912-3.344-5.808
			c-0.472-0.744-0.92-1.496-1.408-2.232c-1.656-2.464-3.4-4.872-5.312-7.176H352V296z M352,112H240V64h104c4.408,0,8,3.584,8,8V112z
			"/>
	</g>
</g>
<g>
</g>
<g>
</g>
<g>
</g>
<g>
</g>
<g>
</g>
<g>
</g>
<g>
</g>
<g>
</g>
<g>
</g>
<g>
</g>
<g>
</g>
<g>
</g>
<g>
</g>
<g>
</g>
<g>
</g>
</svg>
