<?xml version="1.0" encoding="iso-8859-1"?>
<!-- Generator: Adobe Illustrator 19.0.0, SVG Export Plug-In . SVG Version: 6.00 Build 0)  -->
<svg version="1.1" id="Capa_1" xmlns="http://www.w3.org/2000/svg" xmlns:xlink="http://www.w3.org/1999/xlink" x="0px" y="0px"
	 viewBox="0 0 368 368" style="enable-background:new 0 0 368 368;" xml:space="preserve">
<g>
	<g>
		<path d="M344,80h-72v-8c0-22.056-17.944-40-40-40h-96c-22.056,0-40,17.944-40,40v8H24C10.768,80,0,90.768,0,104v208
			c0,6.416,2.504,12.44,7.032,16.976C11.56,333.512,17.584,336,23.992,336H24h320c13.232,0,24-10.768,24-24.008V104
			C368,90.768,357.232,80,344,80z M352,311.992c0,4.416-3.584,8.008-8,8.008H24c-0.008,0-0.008,0-0.008,0
			c-2.136,0-4.144-0.832-5.648-2.336C16.832,316.144,16,314.136,16,312V104c0-4.408,3.584-8,8-8h80c4.424,0,8-3.584,8-8V72
			c0-13.232,10.768-24,24-24h96c13.232,0,24,10.768,24,24v16c0,4.416,3.576,8,8,8h80c4.416,0,8,3.592,8,8V311.992z"/>
	</g>
</g>
<g>
	<g>
		<path d="M216,80h-64c-4.424,0-8,3.584-8,8s3.576,8,8,8h64c4.424,0,8-3.584,8-8S220.424,80,216,80z"/>
	</g>
</g>
<g>
	<g>
		<path d="M216,128H56c-4.424,0-8,3.584-8,8v144c0,4.416,3.576,8,8,8h160c4.424,0,8-3.584,8-8V136C224,131.584,220.424,128,216,128z
			 M208,272H64V144h144V272z"/>
	</g>
</g>
<g>
	<g>
		<path d="M312,128h-48c-4.424,0-8,3.584-8,8v48c0,4.416,3.576,8,8,8h48c4.424,0,8-3.584,8-8v-48C320,131.584,316.424,128,312,128z
			 M304,176h-32v-32h32V176z"/>
	</g>
</g>
<g>
	<g>
		<path d="M312,224h-48c-4.424,0-8,3.584-8,8c0,4.416,3.576,8,8,8h48c4.424,0,8-3.584,8-8C320,227.584,316.424,224,312,224z"/>
	</g>
</g>
<g>
	<g>
		<path d="M312,272h-48c-4.424,0-8,3.584-8,8c0,4.416,3.576,8,8,8h48c4.424,0,8-3.584,8-8C320,275.584,316.424,272,312,272z"/>
	</g>
</g>
<g>
</g>
<g>
</g>
<g>
</g>
<g>
</g>
<g>
</g>
<g>
</g>
<g>
</g>
<g>
</g>
<g>
</g>
<g>
</g>
<g>
</g>
<g>
</g>
<g>
</g>
<g>
</g>
<g>
</g>
</svg>
