<?xml version="1.0" encoding="iso-8859-1"?>
<!-- Generator: Adobe Illustrator 19.0.0, SVG Export Plug-In . SVG Version: 6.00 Build 0)  -->
<svg version="1.1" id="Capa_1" xmlns="http://www.w3.org/2000/svg" xmlns:xlink="http://www.w3.org/1999/xlink" x="0px" y="0px"
	 viewBox="0 0 368 368" style="enable-background:new 0 0 368 368;" xml:space="preserve">
<g>
	<g>
		<path d="M344,80h-72v-8c0-22.056-17.944-40-40-40h-96c-22.056,0-40,17.944-40,40v8H24C10.768,80,0,90.768,0,104v208
			c0,6.416,2.496,12.44,7.032,16.976C11.56,333.504,17.584,336,23.992,336H24h320c13.232,0,24-10.768,24-24.008V104
			C368,90.768,357.232,80,344,80z M352,176h-48v-32h48V176z M352,128h-56c-4.424,0-8,3.584-8,8v48c0,4.416,3.576,8,8,8h56v80h-72
			c-4.424,0-8,3.584-8,8c0,4.416,3.576,8,8,8h72v23.992c0,4.416-3.584,8.008-8,8.008H24c-2.136,0-4.144-0.832-5.648-2.336
			C16.832,316.144,16,314.136,16,312v-24h72c4.416,0,8-3.584,8-8c0-4.416-3.584-8-8-8H16V104c0-4.408,3.592-8,8-8h80
			c4.416,0,8-3.584,8-8V72c0-13.232,10.768-24,24-24h96c13.232,0,24,10.768,24,24v16c0,4.416,3.576,8,8,8h80c4.416,0,8,3.592,8,8
			V128z"/>
	</g>
</g>
<g>
	<g>
		<path d="M216,80h-64c-4.416,0-8,3.584-8,8s3.584,8,8,8h64c4.424,0,8-3.584,8-8S220.424,80,216,80z"/>
	</g>
</g>
<g>
	<g>
		<path d="M184,128c-44.112,0-80,35.888-80,80s35.888,80,80,80s80-35.888,80-80S228.112,128,184,128z M184,272
			c-35.288,0-64-28.712-64-64c0-35.288,28.712-64,64-64c35.288,0,64,28.712,64,64C248,243.288,219.288,272,184,272z"/>
	</g>
</g>
<g>
	<g>
		<path d="M184,184c-13.232,0-24,10.768-24,24s10.768,24,24,24s24-10.768,24-24S197.232,184,184,184z M184,216c-4.408,0-8-3.592-8-8
			c0-4.408,3.592-8,8-8s8,3.592,8,8C192,212.408,188.408,216,184,216z"/>
	</g>
</g>
<g>
</g>
<g>
</g>
<g>
</g>
<g>
</g>
<g>
</g>
<g>
</g>
<g>
</g>
<g>
</g>
<g>
</g>
<g>
</g>
<g>
</g>
<g>
</g>
<g>
</g>
<g>
</g>
<g>
</g>
</svg>
