<?xml version="1.0" encoding="iso-8859-1"?>
<!-- Generator: Adobe Illustrator 19.0.0, SVG Export Plug-In . SVG Version: 6.00 Build 0)  -->
<svg version="1.1" id="Capa_1" xmlns="http://www.w3.org/2000/svg" xmlns:xlink="http://www.w3.org/1999/xlink" x="0px" y="0px"
	 viewBox="0 0 368 368" style="enable-background:new 0 0 368 368;" xml:space="preserve">
<g>
	<g>
		<path d="M344,48H24C10.768,48,0,58.768,0,72v224c0,13.232,10.768,24,24,24h320c13.232,0,24-10.768,24-24V72
			C368,58.768,357.232,48,344,48z M352,296c0,4.416-3.592,8-8,8H24c-4.408,0-8-3.592-8-8V72c0-4.408,3.592-8,8-8h320
			c4.408,0,8,3.592,8,8V296z"/>
	</g>
</g>
<g>
	<g>
		<path d="M104,96H56c-4.416,0-8,3.584-8,8v48c0,4.416,3.576,8,8,8h48c4.416,0,8-3.584,8-8v-48C112,99.584,108.416,96,104,96z
			 M96,144H64v-32h32V144z"/>
	</g>
</g>
<g>
	<g>
		<path d="M294.384,122.008c-0.064-0.072-0.088-0.168-0.16-0.232c-0.072-0.072-0.168-0.088-0.232-0.16
			C278.072,105.8,256.16,96,232,96c-48.52,0-88,39.48-88,88c0,24.16,9.8,46.072,25.616,61.992c0.064,0.072,0.088,0.168,0.16,0.232
			c0.072,0.064,0.168,0.088,0.232,0.16C185.928,262.2,207.84,272,232,272c48.52,0,88-39.48,88-88
			C320,159.84,310.2,137.928,294.384,122.008z M160,184c0-39.696,32.304-72,72-72c16.976,0,32.568,5.936,44.888,15.8l-22.864,22.864
			C247.696,146.472,240.136,144,232,144c-22.056,0-40,17.944-40,40c0,8.136,2.472,15.696,6.664,22.024L175.8,228.888
			C165.936,216.568,160,200.976,160,184z M256,184c0,13.232-10.768,24-24,24s-24-10.768-24-24s10.768-24,24-24S256,170.768,256,184z
			 M232,256c-16.976,0-32.568-5.936-44.888-15.8l22.864-22.864C216.304,221.528,223.864,224,232,224c22.056,0,40-17.944,40-40
			c0-8.136-2.472-15.696-6.664-22.024l22.864-22.864c9.864,12.32,15.8,27.912,15.8,44.888C304,223.696,271.696,256,232,256z"/>
	</g>
</g>
<g>
	<g>
		<path d="M104,192H56c-4.416,0-8,3.584-8,8c0,4.416,3.584,8,8,8h48c4.416,0,8-3.584,8-8C112,195.584,108.416,192,104,192z"/>
	</g>
</g>
<g>
</g>
<g>
</g>
<g>
</g>
<g>
</g>
<g>
</g>
<g>
</g>
<g>
</g>
<g>
</g>
<g>
</g>
<g>
</g>
<g>
</g>
<g>
</g>
<g>
</g>
<g>
</g>
<g>
</g>
</svg>
