<?xml version="1.0" encoding="iso-8859-1"?>
<!-- Generator: Adobe Illustrator 19.0.0, SVG Export Plug-In . SVG Version: 6.00 Build 0)  -->
<svg version="1.1" id="Capa_1" xmlns="http://www.w3.org/2000/svg" xmlns:xlink="http://www.w3.org/1999/xlink" x="0px" y="0px"
	 viewBox="0 0 368 368" style="enable-background:new 0 0 368 368;" xml:space="preserve">
<g>
	<g>
		<path d="M344,48H235.552C238.304,43.272,240,37.856,240,32c0-17.648-14.352-32-32-32H32C14.352,0,0,14.352,0,32
			c0,11.792,6.48,21.992,16,27.544v248.904C6.48,314.008,0,324.208,0,336c0,17.648,14.352,32,32,32h176c17.648,0,32-14.352,32-32
			c0-5.856-1.696-11.272-4.448-16H296c13.232,0,24-10.768,24-24v-96c0-4.408,3.584-8,8-8h16c13.232,0,24-10.768,24-24V72
			C368,58.768,357.232,48,344,48z M272,64h32v32h-32V64z M256,64v32h-32V64H256z M32,16h176c8.824,0,16,7.176,16,16s-7.176,16-16,16
			h-40H32c-8.824,0-16-7.176-16-16S23.176,16,32,16z M208,64v32h-32V64H208z M176,272h32v32h-32V272z M120,176c-4.416,0-8,3.584-8,8
			v120H32V64h80v56c0,4.416,3.584,8,8,8s8-3.584,8-8V64h32v240h-32V184C128,179.584,124.416,176,120,176z M208,352H32
			c-8.824,0-16-7.176-16-16c0-8.824,7.176-16,16-16h136h40c8.824,0,16,7.176,16,16C224,344.824,216.824,352,208,352z M256,304h-32
			v-32h32V304z M304,296c0,4.408-3.584,8-8,8h-24v-32h32V296z M352,168c0,4.408-3.584,8-8,8h-16c-13.232,0-24,10.768-24,24v56H176
			V112h176V168z M352,96h-32V64h24c4.416,0,8,3.584,8,8V96z"/>
	</g>
</g>
<g>
</g>
<g>
</g>
<g>
</g>
<g>
</g>
<g>
</g>
<g>
</g>
<g>
</g>
<g>
</g>
<g>
</g>
<g>
</g>
<g>
</g>
<g>
</g>
<g>
</g>
<g>
</g>
<g>
</g>
</svg>
