<?xml version="1.0" encoding="iso-8859-1"?>
<!-- Generator: Adobe Illustrator 19.0.0, SVG Export Plug-In . SVG Version: 6.00 Build 0)  -->
<svg version="1.1" id="Capa_1" xmlns="http://www.w3.org/2000/svg" xmlns:xlink="http://www.w3.org/1999/xlink" x="0px" y="0px"
	 viewBox="0 0 368 368" style="enable-background:new 0 0 368 368;" xml:space="preserve">
<g>
	<g>
		<path d="M360.968,7.032C356.44,2.496,350.408,0,344,0H24C10.768,0,0,10.768,0,24v320c0,13.232,10.768,24,24,24h320
			c13.232,0,24-10.768,24-24V24C368,17.592,365.504,11.56,360.968,7.032z M352,344c0,4.408-3.592,8-8,8H24c-4.408,0-8-3.592-8-8V24
			c0-4.408,3.592-8,8-8h320c2.136,0,4.152,0.832,5.664,2.344C351.168,19.856,352,21.856,352,24V344z"/>
	</g>
</g>
<g>
	<g>
		<path d="M184,144c-22.056,0-40,17.944-40,40c0,22.056,17.944,40,40,40c22.056,0,40-17.944,40-40C224,161.944,206.056,144,184,144z
			 M184,208c-13.232,0-24-10.768-24-24s10.768-24,24-24s24,10.768,24,24S197.232,208,184,208z"/>
	</g>
</g>
<g>
	<g>
		<path d="M184,48c-4.416,0-8,3.584-8,8v32c0,4.416,3.584,8,8,8s8-3.584,8-8V56C192,51.584,188.416,48,184,48z"/>
	</g>
</g>
<g>
	<g>
		<path d="M184,272c-4.416,0-8,3.584-8,8v32c0,4.416,3.584,8,8,8s8-3.584,8-8v-32C192,275.584,188.416,272,184,272z"/>
	</g>
</g>
<g>
	<g>
		<path d="M312,176h-32c-4.416,0-8,3.584-8,8s3.584,8,8,8h32c4.416,0,8-3.584,8-8C320,179.584,316.416,176,312,176z"/>
	</g>
</g>
<g>
	<g>
		<path d="M88,176H56c-4.416,0-8,3.584-8,8s3.584,8,8,8h32c4.416,0,8-3.584,8-8C96,179.584,92.416,176,88,176z"/>
	</g>
</g>
<g>
	<g>
		<path d="M104,48H56c-4.416,0-8,3.584-8,8v48c0,4.416,3.584,8,8,8s8-3.584,8-8V64h40c4.416,0,8-3.584,8-8S108.416,48,104,48z"/>
	</g>
</g>
<g>
	<g>
		<path d="M312,48h-48c-4.416,0-8,3.584-8,8s3.584,8,8,8h40v40c0,4.416,3.584,8,8,8c4.416,0,8-3.584,8-8V56
			C320,51.584,316.416,48,312,48z"/>
	</g>
</g>
<g>
	<g>
		<path d="M104,304H64v-40c0-4.416-3.584-8-8-8s-8,3.584-8,8v48c0,4.416,3.584,8,8,8h48c4.416,0,8-3.584,8-8
			C112,307.584,108.416,304,104,304z"/>
	</g>
</g>
<g>
	<g>
		<path d="M312,256c-4.416,0-8,3.584-8,8v40h-40c-4.416,0-8,3.584-8,8c0,4.416,3.584,8,8,8h48c4.416,0,8-3.584,8-8v-48
			C320,259.584,316.416,256,312,256z"/>
	</g>
</g>
<g>
</g>
<g>
</g>
<g>
</g>
<g>
</g>
<g>
</g>
<g>
</g>
<g>
</g>
<g>
</g>
<g>
</g>
<g>
</g>
<g>
</g>
<g>
</g>
<g>
</g>
<g>
</g>
<g>
</g>
</svg>
