<?xml version="1.0" encoding="iso-8859-1"?>
<!-- Generator: Adobe Illustrator 19.0.0, SVG Export Plug-In . SVG Version: 6.00 Build 0)  -->
<svg version="1.1" id="Capa_1" xmlns="http://www.w3.org/2000/svg" xmlns:xlink="http://www.w3.org/1999/xlink" x="0px" y="0px"
	 viewBox="0 0 368 368" style="enable-background:new 0 0 368 368;" xml:space="preserve">
<g>
	<g>
		<path d="M344,0H24C10.768,0,0,10.768,0,24v320c0,13.232,10.768,24,24,24h320c13.232,0,24-10.768,24-24V24
			C368,10.768,357.232,0,344,0z M352,344c0,4.416-3.584,8-8,8H24c-4.416,0-8-3.592-8-8V24c0-4.408,3.584-8,8-8h320
			c4.416,0,8,3.592,8,8V344z"/>
	</g>
</g>
<g>
	<g>
		<path d="M184,128c-30.872,0-56,25.12-56,56s25.128,56,56,56s56-25.12,56-56S214.872,128,184,128z M184,224
			c-22.056,0-40-17.944-40-40c0-22.056,17.944-40,40-40c22.056,0,40,17.944,40,40C224,206.056,206.056,224,184,224z"/>
	</g>
</g>
<g>
	<g>
		<path d="M112,256H80V112h32c4.424,0,8-3.584,8-8s-3.576-8-8-8H72c-4.424,0-8,3.584-8,8v160c0,4.416,3.576,8,8,8h40
			c4.424,0,8-3.584,8-8C120,259.584,116.424,256,112,256z"/>
	</g>
</g>
<g>
	<g>
		<path d="M296,96h-40c-4.424,0-8,3.584-8,8s3.576,8,8,8h32v144h-32c-4.424,0-8,3.584-8,8c0,4.416,3.576,8,8,8h40
			c4.424,0,8-3.584,8-8V104C304,99.584,300.424,96,296,96z"/>
	</g>
</g>
<g>
</g>
<g>
</g>
<g>
</g>
<g>
</g>
<g>
</g>
<g>
</g>
<g>
</g>
<g>
</g>
<g>
</g>
<g>
</g>
<g>
</g>
<g>
</g>
<g>
</g>
<g>
</g>
<g>
</g>
</svg>
