<?xml version="1.0" encoding="iso-8859-1"?>
<!-- Generator: Adobe Illustrator 19.0.0, SVG Export Plug-In . SVG Version: 6.00 Build 0)  -->
<svg version="1.1" id="Capa_1" xmlns="http://www.w3.org/2000/svg" xmlns:xlink="http://www.w3.org/1999/xlink" x="0px" y="0px"
	 viewBox="0 0 368 368" style="enable-background:new 0 0 368 368;" xml:space="preserve">
<g>
	<g>
		<path d="M184,176c-30.872,0-56,25.12-56,56s25.128,56,56,56s56-25.12,56-56S214.872,176,184,176z M184,272
			c-22.056,0-40-17.944-40-40c0-22.056,17.944-40,40-40c22.056,0,40,17.944,40,40C224,254.056,206.056,272,184,272z"/>
	</g>
</g>
<g>
	<g>
		<path d="M200,80h-32c-4.424,0-8,3.584-8,8s3.576,8,8,8h32c4.424,0,8-3.584,8-8S204.424,80,200,80z"/>
	</g>
</g>
<g>
	<g>
		<path d="M344,64h-88V40c0-4.416-3.576-8-8-8H120c-4.424,0-8,3.584-8,8v24H24C10.768,64,0,74.768,0,88v48v176
			c0,13.232,10.768,24,24,24h320c13.232,0,24-10.768,24-24V136V88C368,74.768,357.232,64,344,64z M128,72V48h112v24v56H128V72z
			 M16,88c0-4.408,3.584-8,8-8h88v48H16V88z M80,320H24c-4.416,0-8-3.592-8-8V144h64V320z M272,320H96V144h24h128h24V320z M352,312
			c0,4.408-3.584,8-8,8h-56V144h64V312z M352,128h-96V80h88c4.416,0,8,3.592,8,8V128z"/>
	</g>
</g>
<g>
</g>
<g>
</g>
<g>
</g>
<g>
</g>
<g>
</g>
<g>
</g>
<g>
</g>
<g>
</g>
<g>
</g>
<g>
</g>
<g>
</g>
<g>
</g>
<g>
</g>
<g>
</g>
<g>
</g>
</svg>
