<?xml version="1.0" encoding="iso-8859-1"?>
<!-- Generator: Adobe Illustrator 19.0.0, SVG Export Plug-In . SVG Version: 6.00 Build 0)  -->
<svg version="1.1" id="Capa_1" xmlns="http://www.w3.org/2000/svg" xmlns:xlink="http://www.w3.org/1999/xlink" x="0px" y="0px"
	 viewBox="0 0 368 368" style="enable-background:new 0 0 368 368;" xml:space="preserve">
<g>
	<g>
		<path d="M272,88h-16V56.016c0-0.008,0-0.016,0-0.016v-0.016V8c0-4.416-3.584-8-8-8H120c-4.416,0-8,3.584-8,8v80H96
			c-17.648,0-32,14.352-32,32v216c0,17.64,14.352,32,32,32h176c17.648,0,32-14.352,32-32V120C304,102.352,289.648,88,272,88z
			 M128,16h112v32H128V16z M128,96.016c0-0.008,0-0.016,0-0.016v-0.016V64h112v88H128V96.016z M80,120c0-8.832,7.176-16,16-16h16v48
			H80V120z M288,336c0,8.816-7.176,16-16,16H96c-8.824,0-16-7.184-16-16V168h40h128h40V336z M288,152h-32v-48h16
			c8.824,0,16,7.176,16,16V152z"/>
	</g>
</g>
<g>
	<g>
		<path d="M248,200H120c-2.12,0-4.16,0.84-5.656,2.344C112.848,203.848,112,205.872,112,208v104c0,4.416,3.584,8,8,8h128
			c4.416,0,8-3.584,8-8V208C256,203.576,252.416,200,248,200z M240,304H128v-88h112V304z"/>
	</g>
</g>
<g>
</g>
<g>
</g>
<g>
</g>
<g>
</g>
<g>
</g>
<g>
</g>
<g>
</g>
<g>
</g>
<g>
</g>
<g>
</g>
<g>
</g>
<g>
</g>
<g>
</g>
<g>
</g>
<g>
</g>
</svg>
