<?xml version="1.0" encoding="iso-8859-1"?>
<!-- Generator: Adobe Illustrator 19.0.0, SVG Export Plug-In . SVG Version: 6.00 Build 0)  -->
<svg version="1.1" id="Capa_1" xmlns="http://www.w3.org/2000/svg" xmlns:xlink="http://www.w3.org/1999/xlink" x="0px" y="0px"
	 viewBox="0 0 368 368" style="enable-background:new 0 0 368 368;" xml:space="preserve">
<g>
	<g>
		<path d="M216,176c-30.872,0-56,25.12-56,56s25.128,56,56,56s56-25.12,56-56S246.872,176,216,176z M216,272
			c-22.056,0-40-17.944-40-40c0-22.056,17.944-40,40-40c22.056,0,40,17.944,40,40C256,254.056,238.056,272,216,272z"/>
	</g>
</g>
<g>
	<g>
		<path d="M360,32H184c-4.424,0-8,3.584-8,8v24H96V40c0-4.416-3.576-8-8-8H24c-4.424,0-8,3.584-8,8v24H8c-4.424,0-8,3.584-8,8v240
			c0,13.232,10.768,24,23.992,24H344c13.232,0,24-10.768,24-24V40C368,35.584,364.424,32,360,32z M32,48h48v16H32V48z M48,320
			H23.992c-4.408,0-7.992-3.592-7.992-8V144h32V320z M64,320V144h96.832C131.552,162.416,112,194.928,112,232
			c0,37.072,19.552,69.584,48.832,88H64z M128,232c0-48.52,39.48-88,88-88s88,39.48,88,88s-39.48,88-88,88
			C167.48,320,128,280.52,128,232z M352,312c0,4.408-3.584,8-8,8h-72.832C300.448,301.584,320,269.072,320,232
			c0-37.072-19.552-69.584-48.832-88H352V312z M352,80h-88c-4.424,0-8,3.584-8,8s3.576,8,8,8h88v32H16V80h8h64h96
			c4.424,0,8-3.584,8-8V48h160V80z"/>
	</g>
</g>
<g>
</g>
<g>
</g>
<g>
</g>
<g>
</g>
<g>
</g>
<g>
</g>
<g>
</g>
<g>
</g>
<g>
</g>
<g>
</g>
<g>
</g>
<g>
</g>
<g>
</g>
<g>
</g>
<g>
</g>
</svg>
