<?xml version="1.0" encoding="iso-8859-1"?>
<!-- Generator: Adobe Illustrator 19.0.0, SVG Export Plug-In . SVG Version: 6.00 Build 0)  -->
<svg version="1.1" id="Capa_1" xmlns="http://www.w3.org/2000/svg" xmlns:xlink="http://www.w3.org/1999/xlink" x="0px" y="0px"
	 viewBox="0 0 368 368" style="enable-background:new 0 0 368 368;" xml:space="preserve">
<g>
	<g>
		<path d="M96,80c-26.472,0-48,21.528-48,48s21.528,48,48,48s48-21.528,48-48S122.472,80,96,80z M96,160c-17.648,0-32-14.352-32-32
			s14.352-32,32-32s32,14.352,32,32S113.648,160,96,160z"/>
	</g>
</g>
<g>
	<g>
		<path d="M344,32H24C10.768,32,0,42.768,0,56v224v32c0,13.232,10.768,24,24,24h319.992C357.224,336,368,325.232,368,312v-32V168
			v-48V56C368,42.768,357.232,32,344,32z M352,312c0,4.408-3.592,8-8.008,8H24c-4.416,0-8-3.592-8-8v-24h168h168V312z M352,272
			H200.648l76.8-96H352V272z M352,160h-61.752l25.592-32H352V160z M352,112h-40c-2.432,0-4.728,1.104-6.248,3l-52.744,65.928
			L180.152,272H16V56c0-4.408,3.584-8,8-8h320c4.416,0,8,3.592,8,8V112z"/>
	</g>
</g>
<g>
</g>
<g>
</g>
<g>
</g>
<g>
</g>
<g>
</g>
<g>
</g>
<g>
</g>
<g>
</g>
<g>
</g>
<g>
</g>
<g>
</g>
<g>
</g>
<g>
</g>
<g>
</g>
<g>
</g>
</svg>
