<?xml version="1.0" encoding="iso-8859-1"?>
<!-- Generator: Adobe Illustrator 19.0.0, SVG Export Plug-In . SVG Version: 6.00 Build 0)  -->
<svg version="1.1" id="Capa_1" xmlns="http://www.w3.org/2000/svg" xmlns:xlink="http://www.w3.org/1999/xlink" x="0px" y="0px"
	 viewBox="0 0 368 368" style="enable-background:new 0 0 368 368;" xml:space="preserve">
<g>
	<g>
		<path d="M360,96h-24V56c0-4.416-3.576-8-8-8H144V8c0-4.416-3.584-8-8-8H8C3.584,0,0,3.584,0,8v352c0,4.416,3.584,8,8,8h352
			c4.424,0,8-3.584,8-8V104C368,99.584,364.424,96,360,96z M144,64h176v32H144V64z M352,352H16V16h112v80H72c-4.416,0-8,3.584-8,8
			s3.584,8,8,8h280V352z"/>
	</g>
</g>
<g>
	<g>
		<path d="M312,144H56c-4.416,0-8,3.584-8,8v160c0,0.128,0.064,0.232,0.072,0.352c0.024,0.568,0.184,1.096,0.328,1.64
			c0.128,0.472,0.2,0.944,0.4,1.376c0.2,0.424,0.512,0.784,0.792,1.176c0.336,0.464,0.64,0.936,1.064,1.32
			c0.088,0.08,0.128,0.2,0.224,0.28c0.376,0.312,0.816,0.472,1.232,0.704c0.336,0.192,0.632,0.424,0.992,0.568
			C54.04,319.784,55.016,320,56,320h256c0.968,0,1.936-0.224,2.864-0.576c0.344-0.136,0.632-0.344,0.952-0.52
			c0.392-0.216,0.816-0.36,1.184-0.648c0.12-0.096,0.168-0.232,0.28-0.336c0.416-0.376,0.728-0.816,1.064-1.272
			c0.288-0.4,0.6-0.768,0.808-1.2c0.208-0.44,0.304-0.912,0.432-1.384c0.144-0.544,0.296-1.064,0.328-1.624
			c0.008-0.16,0.088-0.288,0.088-0.44V152C320,147.584,316.424,144,312,144z M73.08,304l63.12-75.736l57.824,65.056
			c0.128,0.144,0.304,0.2,0.44,0.328s0.192,0.304,0.336,0.424c0.272,0.232,0.616,0.312,0.904,0.504
			c0.456,0.296,0.896,0.584,1.4,0.784c0.488,0.192,0.968,0.288,1.472,0.376c0.496,0.088,0.976,0.176,1.48,0.168
			c0.528,0,1.024-0.096,1.544-0.208c0.48-0.096,0.944-0.2,1.408-0.384c0.504-0.208,0.944-0.504,1.408-0.816
			c0.288-0.192,0.624-0.28,0.896-0.52c0.144-0.128,0.2-0.304,0.328-0.44s0.304-0.192,0.424-0.336l41.72-48.664L295.352,304H73.08z
			 M304,289.192l-49.752-62.184c-1.496-1.864-3.736-2.96-6.12-3c-0.04,0-0.088,0-0.136,0c-2.336,0-4.552,1.016-6.072,2.792
			l-42.04,49.048l-57.912-65.152c-1.536-1.752-3.64-2.696-6.096-2.696c-2.328,0.04-4.528,1.088-6.016,2.88L64,289.904V160h240
			V289.192z"/>
	</g>
</g>
<g>
	<g>
		<circle cx="200" cy="208" r="16"/>
	</g>
</g>
<g>
</g>
<g>
</g>
<g>
</g>
<g>
</g>
<g>
</g>
<g>
</g>
<g>
</g>
<g>
</g>
<g>
</g>
<g>
</g>
<g>
</g>
<g>
</g>
<g>
</g>
<g>
</g>
<g>
</g>
</svg>
