<?xml version="1.0" encoding="iso-8859-1"?>
<!-- Generator: Adobe Illustrator 19.0.0, SVG Export Plug-In . SVG Version: 6.00 Build 0)  -->
<svg version="1.1" id="Capa_1" xmlns="http://www.w3.org/2000/svg" xmlns:xlink="http://www.w3.org/1999/xlink" x="0px" y="0px"
	 viewBox="0 0 368 368" style="enable-background:new 0 0 368 368;" xml:space="preserve">
<g>
	<g>
		<path d="M335.944,7.712c-0.032-0.936-0.176-1.872-0.552-2.776c0-0.008-0.008-0.016-0.016-0.024c-0.032-0.072-0.088-0.128-0.12-0.2
			c-0.36-0.8-0.848-1.496-1.432-2.12c-0.192-0.208-0.4-0.368-0.608-0.552c-0.512-0.448-1.056-0.816-1.664-1.12
			c-0.248-0.12-0.488-0.256-0.76-0.36C329.912,0.232,328.984,0,328,0H40c-0.984,0-1.912,0.232-2.792,0.56
			c-0.272,0.104-0.504,0.232-0.76,0.36c-0.608,0.304-1.16,0.672-1.664,1.12c-0.208,0.184-0.416,0.344-0.608,0.552
			C33.6,3.216,33.104,3.92,32.744,4.72c-0.032,0.072-0.088,0.12-0.112,0.192c0,0.008-0.008,0.016-0.016,0.024
			c-0.376,0.896-0.52,1.832-0.552,2.776C32.056,7.816,32,7.896,32,8v352c0,0.104,0.056,0.184,0.056,0.288
			c0.032,0.936,0.176,1.872,0.552,2.776c0,0.008,0.008,0.016,0.016,0.024c0.032,0.072,0.08,0.12,0.112,0.192
			c0.36,0.8,0.856,1.504,1.432,2.128c0.192,0.208,0.4,0.368,0.608,0.552c0.512,0.448,1.064,0.816,1.664,1.12
			c0.256,0.128,0.488,0.256,0.76,0.36c0.888,0.328,1.816,0.56,2.8,0.56h288c0.984,0,1.912-0.232,2.792-0.56
			c0.272-0.104,0.504-0.232,0.76-0.36c0.608-0.304,1.152-0.672,1.664-1.12c0.208-0.184,0.416-0.344,0.608-0.552
			c0.576-0.624,1.064-1.32,1.432-2.12c0.032-0.072,0.088-0.128,0.12-0.2c0-0.008,0.008-0.016,0.016-0.024
			c0.376-0.896,0.52-1.84,0.552-2.776c0-0.104,0.056-0.184,0.056-0.288V8C336,7.896,335.944,7.816,335.944,7.712z M308.688,16
			l-48,48H107.312l-48-48H308.688z M256,80v208H112V80H256z M48,27.312l48,48v217.376l-48,48V27.312z M59.312,352l48-48h153.376
			l48,48H59.312z M320,340.688l-48-48V75.312l48-48V340.688z"/>
	</g>
</g>
<g>
</g>
<g>
</g>
<g>
</g>
<g>
</g>
<g>
</g>
<g>
</g>
<g>
</g>
<g>
</g>
<g>
</g>
<g>
</g>
<g>
</g>
<g>
</g>
<g>
</g>
<g>
</g>
<g>
</g>
</svg>
