<?xml version="1.0" encoding="iso-8859-1"?>
<!-- Generator: Adobe Illustrator 19.0.0, SVG Export Plug-In . SVG Version: 6.00 Build 0)  -->
<svg version="1.1" id="Capa_1" xmlns="http://www.w3.org/2000/svg" xmlns:xlink="http://www.w3.org/1999/xlink" x="0px" y="0px"
	 viewBox="0 0 368.002 368.002" style="enable-background:new 0 0 368.002 368.002;" xml:space="preserve">
<g>
	<g>
		<path d="M367.385,84.946c-0.808-1.96-2.368-3.52-4.328-4.328c-0.976-0.4-2.016-0.616-3.056-0.616h-92.688L189.657,2.346
			c-3.128-3.128-8.184-3.128-11.312,0l-77.656,77.656H8.001c-1.04,0-2.08,0.216-3.056,0.616c-1.96,0.808-3.52,2.368-4.328,4.328
			c-0.4,0.976-0.616,2.016-0.616,3.056v272c0,1.04,0.216,2.08,0.616,3.056c0.808,1.96,2.368,3.52,4.328,4.328
			c0.976,0.4,2.016,0.616,3.056,0.616h352c1.04,0,2.08-0.216,3.056-0.616c1.96-0.808,3.52-2.368,4.328-4.328
			c0.408-0.976,0.616-2.016,0.616-3.056v-272C368.001,86.962,367.793,85.922,367.385,84.946z M184.001,19.314l60.688,60.688H123.313
			L184.001,19.314z M104.001,96.002h160h76.688l-32,32H59.313l-32-32H104.001z M304.001,144.002v160h-240v-160H304.001z
			 M16.001,107.314l32,32V308.69l-32,32V107.314z M27.313,352.002l32-32h249.376l32,32H27.313z M352.001,340.69l-32-32V139.314
			l32-32V340.69z"/>
	</g>
</g>
<g>
</g>
<g>
</g>
<g>
</g>
<g>
</g>
<g>
</g>
<g>
</g>
<g>
</g>
<g>
</g>
<g>
</g>
<g>
</g>
<g>
</g>
<g>
</g>
<g>
</g>
<g>
</g>
<g>
</g>
</svg>
