<?xml version="1.0" encoding="iso-8859-1"?>
<!-- Generator: Adobe Illustrator 19.0.0, SVG Export Plug-In . SVG Version: 6.00 Build 0)  -->
<svg version="1.1" id="Capa_1" xmlns="http://www.w3.org/2000/svg" xmlns:xlink="http://www.w3.org/1999/xlink" x="0px" y="0px"
	 viewBox="0 0 368 368" style="enable-background:new 0 0 368 368;" xml:space="preserve">
<g>
	<g>
		<path d="M312,0H56C33.944,0,16,17.944,16,40v32v64v192c0,22.056,17.936,40,39.992,40H312c22.056,0,40-17.944,40-40V40
			C352,17.944,334.056,0,312,0z M80,72V16h32v112H80V72z M32,40c0-13.232,10.768-24,24-24h8v48H32V40z M32,80h32v48H32V80z M336,328
			c0,13.232-10.768,24-24,24H55.992C42.768,352,32,341.232,32,328V144h40h48c4.424,0,8-3.584,8-8v-24h208V328z M336,96H128V16h184
			c13.232,0,24,10.768,24,24V96z"/>
	</g>
</g>
<g>
	<g>
		<path d="M216,144c-48.52,0-88,39.48-88,88s39.48,88,88,88s88-39.48,88-88C304,183.48,264.52,144,216,144z M216,304
			c-39.704,0-72-32.304-72-72s32.296-72,72-72c39.704,0,72,32.304,72,72S255.704,304,216,304z"/>
	</g>
</g>
<g>
	<g>
		<circle cx="80" cy="192" r="16"/>
	</g>
</g>
<g>
	<g>
		<path d="M216,192c-22.056,0-40,17.944-40,40c0,22.056,17.944,40,40,40c22.056,0,40-17.944,40-40C256,209.944,238.056,192,216,192z
			 M216,256c-13.232,0-24-10.768-24-24s10.768-24,24-24s24,10.768,24,24S229.232,256,216,256z"/>
	</g>
</g>
<g>
</g>
<g>
</g>
<g>
</g>
<g>
</g>
<g>
</g>
<g>
</g>
<g>
</g>
<g>
</g>
<g>
</g>
<g>
</g>
<g>
</g>
<g>
</g>
<g>
</g>
<g>
</g>
<g>
</g>
</svg>
