<?xml version="1.0" encoding="iso-8859-1"?>
<!-- Generator: Adobe Illustrator 19.0.0, SVG Export Plug-In . SVG Version: 6.00 Build 0)  -->
<svg version="1.1" id="Capa_1" xmlns="http://www.w3.org/2000/svg" xmlns:xlink="http://www.w3.org/1999/xlink" x="0px" y="0px"
	 viewBox="0 0 368 368" style="enable-background:new 0 0 368 368;" xml:space="preserve">
<g>
	<g>
		<path d="M312,0H56C33.944,0,16,17.944,16,40v248c0,22.056,17.944,40,40,40h8v32c0,4.416,3.584,8,8,8h224c4.416,0,8-3.584,8-8v-32
			h8c22.056,0,40-17.944,40-40V104V56V40C352,17.944,334.056,0,312,0z M64,280v32h-8c-13.232,0-24-10.768-24-24v-48h96v32H72
			C67.584,272,64,275.584,64,280z M288,352H80v-64h56h48h48h56V352z M192,199.552c0.448-0.048,0.88-0.168,1.328-0.232
			c2.224-0.288,4.432-0.648,6.6-1.144c0.928-0.208,1.832-0.504,2.752-0.752c1.704-0.456,3.408-0.936,5.072-1.52
			c1.008-0.352,1.984-0.76,2.976-1.16c1.536-0.616,3.048-1.256,4.536-1.976c1-0.48,1.968-0.992,2.944-1.52
			c1.424-0.768,2.824-1.584,4.2-2.456c0.52-0.328,1.088-0.592,1.6-0.936V272h-32v-72.448H192z M184,184
			c-4.024,0-8-0.432-11.856-1.272c-11.592-2.512-22.184-8.656-30.136-17.696C132.976,154.768,128,141.616,128,128
			c0-30.88,25.12-56,56-56s56,25.12,56,56c0,13.616-4.976,26.768-14.008,37.04C215.392,177.088,200.088,184,184,184z M176,199.56
			V272h-32v-84.128c0.52,0.344,1.088,0.616,1.616,0.944c1.368,0.864,2.752,1.672,4.168,2.44c0.976,0.528,1.96,1.048,2.96,1.528
			c1.48,0.712,2.992,1.352,4.52,1.968c0.992,0.4,1.976,0.808,2.984,1.16c1.664,0.584,3.36,1.056,5.072,1.52
			c0.92,0.248,1.824,0.536,2.752,0.752c2.176,0.496,4.376,0.848,6.6,1.144C175.12,199.384,175.552,199.504,176,199.56z M336,288
			c0,13.232-10.768,24-24,24h-8v-32c0-4.416-3.584-8-8-8h-56v-32h96V288z M336,96h-40V64h40V96z M336,48h-48c-4.416,0-8,3.584-8,8
			v48c0,4.416,3.584,8,8,8h48v112h-96v-50.88c10.296-12.808,16-28.68,16-45.12c0-39.696-32.304-72-72-72s-72,32.304-72,72
			c0,16.44,5.704,32.312,16,45.12V224H32v-32h56c4.416,0,8-3.584,8-8c0-4.416-3.584-8-8-8H32V40c0-13.232,10.768-24,24-24h256
			c13.232,0,24,10.768,24,24V48z"/>
	</g>
</g>
<g>
	<g>
		<path d="M184,104c-13.232,0-24,10.768-24,24s10.768,24,24,24s24-10.768,24-24S197.232,104,184,104z M184,136c-4.408,0-8-3.592-8-8
			s3.592-8,8-8s8,3.592,8,8S188.408,136,184,136z"/>
	</g>
</g>
<g>
	<g>
		<circle cx="80" cy="64" r="16"/>
	</g>
</g>
<g>
</g>
<g>
</g>
<g>
</g>
<g>
</g>
<g>
</g>
<g>
</g>
<g>
</g>
<g>
</g>
<g>
</g>
<g>
</g>
<g>
</g>
<g>
</g>
<g>
</g>
<g>
</g>
<g>
</g>
</svg>
