<?xml version="1.0" encoding="iso-8859-1"?>
<!-- Generator: Adobe Illustrator 19.0.0, SVG Export Plug-In . SVG Version: 6.00 Build 0)  -->
<svg version="1.1" id="Capa_1" xmlns="http://www.w3.org/2000/svg" xmlns:xlink="http://www.w3.org/1999/xlink" x="0px" y="0px"
	 viewBox="0 0 368 368" style="enable-background:new 0 0 368 368;" xml:space="preserve">
<g>
	<g>
		<path d="M184,112c-26.472,0-48,21.528-48,48s21.528,48,48,48s48-21.528,48-48S210.472,112,184,112z M184,192
			c-17.648,0-32-14.352-32-32s14.352-32,32-32s32,14.352,32,32S201.648,192,184,192z"/>
	</g>
</g>
<g>
	<g>
		<path d="M184,208c-30.88,0-56,25.12-56,56s25.12,56,56,56s56-25.12,56-56S214.88,208,184,208z M184,304c-22.056,0-40-17.944-40-40
			c0-22.056,17.944-40,40-40c22.056,0,40,17.944,40,40C224,286.056,206.056,304,184,304z"/>
	</g>
</g>
<g>
	<g>
		<path d="M296,192c4.416,0,8-3.584,8-8v-48c0-4.416-3.584-8-8-8h-8V72c0-4.416-3.584-8-8-8h-8V40c0-22.056-17.944-40-40-40h-96
			c-22.056,0-40,17.944-40,40v24h-8c-4.416,0-8,3.584-8,8v56h-8c-4.416,0-8,3.584-8,8v48c0,4.416,3.584,8,8,8h8v64h-8
			c-4.416,0-8,3.584-8,8v48c0,4.416,3.584,8,8,8h8v40c0,4.416,3.584,8,8,8h192c4.416,0,8-3.584,8-8v-56h8c4.416,0,8-3.584,8-8v-48
			c0-4.416-3.584-8-8-8h-8v-48H296z M112,40c0-13.232,10.768-24,24-24h96c13.232,0,24,10.768,24,24v24H112V40z M272,136v48v64v48v56
			H96v-40v-48v-80v-48V80h8h160h8V136z"/>
	</g>
</g>
<g>
</g>
<g>
</g>
<g>
</g>
<g>
</g>
<g>
</g>
<g>
</g>
<g>
</g>
<g>
</g>
<g>
</g>
<g>
</g>
<g>
</g>
<g>
</g>
<g>
</g>
<g>
</g>
<g>
</g>
</svg>
