<?xml version="1.0" encoding="iso-8859-1"?>
<!-- Generator: Adobe Illustrator 19.0.0, SVG Export Plug-In . SVG Version: 6.00 Build 0)  -->
<svg version="1.1" id="Capa_1" xmlns="http://www.w3.org/2000/svg" xmlns:xlink="http://www.w3.org/1999/xlink" x="0px" y="0px"
	 viewBox="0 0 368 368" style="enable-background:new 0 0 368 368;" xml:space="preserve">
<g>
	<g>
		<path d="M317.656,50.344l-48-48C268.16,0.84,266.12,0,264,0H72C58.768,0,48,10.768,48,24v128c0,4.416,3.584,8,8,8h24v48H56
			c-4.416,0-8,3.584-8,8v128c0,13.232,10.768,24,24,24h224c13.232,0,24-10.768,24-24V56C320,53.88,319.16,51.84,317.656,50.344z
			 M304,344c0,4.408-3.592,8-8,8H72c-4.408,0-8-3.592-8-8V224h24c4.416,0,8-3.584,8-8v-64c0-4.416-3.584-8-8-8H64V24
			c0-4.408,3.592-8,8-8h188.688L304,59.312V344z"/>
	</g>
</g>
<g>
	<g>
		<path d="M269.656,74.344l-24-24C244.16,48.84,242.12,48,240,48H104c-4.416,0-8,3.584-8,8v48c0,4.416,3.584,8,8,8s8-3.584,8-8V64
			h124.688L256,83.312V144H152c-4.416,0-8,3.584-8,8v64c0,4.416,3.584,8,8,8h104v80H112v-40c0-4.416-3.584-8-8-8s-8,3.584-8,8v48
			c0,4.416,3.584,8,8,8h160c4.416,0,8-3.584,8-8v-96v-64V80C272,77.88,271.16,75.84,269.656,74.344z M256,208h-96v-48h96V208z"/>
	</g>
</g>
<g>
</g>
<g>
</g>
<g>
</g>
<g>
</g>
<g>
</g>
<g>
</g>
<g>
</g>
<g>
</g>
<g>
</g>
<g>
</g>
<g>
</g>
<g>
</g>
<g>
</g>
<g>
</g>
<g>
</g>
</svg>
