<?xml version="1.0" encoding="utf-8"?>
<!-- Generator: Adobe Illustrator 24.1.0, SVG Export Plug-In . SVG Version: 6.00 Build 0)  -->
<svg version="1.1" id="Capa_1" xmlns="http://www.w3.org/2000/svg" xmlns:xlink="http://www.w3.org/1999/xlink" x="0px" y="0px"
	 viewBox="0 0 368 368" style="enable-background:new 0 0 368 368;" xml:space="preserve">
<style type="text/css">
	.st0{fill:#FFFFFF;}
</style>
<g>
	<g>
		<g>
			<path class="st0" d="M184,0C82.5,0,0,82.5,0,184s82.5,184,184,184s184-82.5,184-184S285.5,0,184,0z M184,352
				c-92.6,0-168-75.4-168-168S91.4,16,184,16s168,75.4,168,168S276.6,352,184,352z"/>
			<path class="st0" d="M120,176c13.2,0,24-10.8,24-24s-10.8-24-24-24s-24,10.8-24,24S106.8,176,120,176z M120,144c4.4,0,8,3.6,8,8
				s-3.6,8-8,8s-8-3.6-8-8S115.6,144,120,144z"/>
			<path class="st0" d="M248,128c-13.2,0-24,10.8-24,24s10.8,24,24,24s24-10.8,24-24S261.2,128,248,128z M248,160c-4.4,0-8-3.6-8-8
				s3.6-8,8-8s8,3.6,8,8S252.4,160,248,160z"/>
			<path class="st0" d="M264,224H104c-4.4,0-8,3.6-8,8s3.6,8,8,8h160c4.4,0,8-3.6,8-8S268.4,224,264,224z"/>
		</g>
	</g>
</g>
</svg>
