<?xml version="1.0" encoding="utf-8"?>
<!-- Generator: Adobe Illustrator 24.1.0, SVG Export Plug-In . SVG Version: 6.00 Build 0)  -->
<svg version="1.1" id="Capa_1" xmlns="http://www.w3.org/2000/svg" xmlns:xlink="http://www.w3.org/1999/xlink" x="0px" y="0px"
	 viewBox="0 0 368 368" style="enable-background:new 0 0 368 368;" xml:space="preserve">
<style type="text/css">
	.st0{fill:#FFFFFF;}
</style>
<g>
	<g>
		<g>
			<path class="st0" d="M184,224c-29.8,0-58.2,12.6-78,34.7c-2.9,3.3-2.7,8.3,0.6,11.3c1.5,1.4,3.4,2,5.3,2c2.2,0,4.4-0.9,6-2.7
				c16.7-18.6,40.8-29.3,66-29.3c25.3,0,49.4,10.7,66,29.3c2.9,3.3,8,3.6,11.3,0.6s3.6-8,0.6-11.3C242.2,236.6,213.8,224,184,224z"
				/>
			<path class="st0" d="M184,0C82.5,0,0,82.5,0,184s82.5,184,184,184s184-82.5,184-184S285.5,0,184,0z M184,352
				c-92.6,0-168-75.4-168-168S91.4,16,184,16s168,75.4,168,168S276.6,352,184,352z"/>
			<path class="st0" d="M280,128c-4.4,0-8,3.6-8,8c0,13.2-10.8,24-24,24s-24-10.8-24-24c0-4.4-3.6-8-8-8s-8,3.6-8,8
				c0,22.1,17.9,40,40,40s40-17.9,40-40C288,131.6,284.4,128,280,128z"/>
			<path class="st0" d="M160,136c0-4.4-3.6-8-8-8s-8,3.6-8,8c0,13.2-10.8,24-24,24s-24-10.8-24-24c0-4.4-3.6-8-8-8s-8,3.6-8,8
				c0,22.1,17.9,40,40,40S160,158.1,160,136z"/>
		</g>
	</g>
</g>
</svg>
