<?xml version="1.0" encoding="utf-8"?>
<!-- Generator: Adobe Illustrator 24.1.0, SVG Export Plug-In . SVG Version: 6.00 Build 0)  -->
<svg version="1.1" id="Capa_1" xmlns="http://www.w3.org/2000/svg" xmlns:xlink="http://www.w3.org/1999/xlink" x="0px" y="0px"
	 viewBox="0 0 368 368" style="enable-background:new 0 0 368 368;" xml:space="preserve">
<style type="text/css">
	.st0{fill:#FFFFFF;}
</style>
<g>
	<g>
		<path class="st0" d="M344,80h-72v-8c0-22.1-17.9-40-40-40h-96c-22.1,0-40,17.9-40,40v8H24C10.8,80,0,90.8,0,104v208
			c0,6.4,2.5,12.4,7,17c4.5,4.5,10.6,7,17,7h0h320c13.2,0,24-10.8,24-24V104C368,90.8,357.2,80,344,80z M352,176h-48v-32h48V176z
			 M352,128h-56c-4.4,0-8,3.6-8,8v48c0,4.4,3.6,8,8,8h56v80l0,0l0,0c0,5.3,0,10.7,0,16l0,0v24c0,4.4-3.6,8-8,8H24
			c-2.1,0-4.1-0.8-5.6-2.3c-1.5-1.5-2.4-3.5-2.4-5.7v-24c0-5.3,0-10.7,0-16V104c0-4.4,3.6-8,8-8h80c4.4,0,8-3.6,8-8V72
			c0-13.2,10.8-24,24-24h96c13.2,0,24,10.8,24,24v16c0,4.4,3.6,8,8,8h80c4.4,0,8,3.6,8,8V128z"/>
	</g>
</g>
<g>
	<g>
		<path class="st0" d="M216,80h-64c-4.4,0-8,3.6-8,8s3.6,8,8,8h64c4.4,0,8-3.6,8-8S220.4,80,216,80z"/>
	</g>
</g>
<g>
	<g>
		<path class="st0" d="M184,128c-44.1,0-80,35.9-80,80s35.9,80,80,80s80-35.9,80-80S228.1,128,184,128z M184,272
			c-35.3,0-64-28.7-64-64s28.7-64,64-64s64,28.7,64,64S219.3,272,184,272z"/>
	</g>
</g>
<g>
	<g>
		<path class="st0" d="M184,184c-13.2,0-24,10.8-24,24s10.8,24,24,24s24-10.8,24-24S197.2,184,184,184z M184,216c-4.4,0-8-3.6-8-8
			s3.6-8,8-8s8,3.6,8,8S188.4,216,184,216z"/>
	</g>
</g>
</svg>
