<svg xmlns="http://www.w3.org/2000/svg" viewBox="0 0 61.6 77.6"><defs><style>.cls-1{fill:#fff;}</style></defs><g id="Capa_2" data-name="Capa 2"><g id="Capa_1-2" data-name="Capa 1"><path class="cls-1" d="M56.8,0H4.8A4.8,4.8,0,0,0,0,4.8,4.72,4.72,0,0,0,4.5,9.5C5.4,31.4,14.6,50.6,26,54.3V72.8a4.8,4.8,0,0,0,4.8,4.8,4.74,4.74,0,0,0,4.8-4.8V54.3C47,50.6,56.2,31.5,57.1,9.5a4.72,4.72,0,0,0,4.5-4.7A4.94,4.94,0,0,0,56.8,0ZM3,4.7A1.79,1.79,0,0,1,4.8,2.9h52a1.8,1.8,0,1,1,0,3.6H55.7A1.54,1.54,0,0,0,54.2,8c-.6,21.6-9.7,41.2-20.4,43.7a1.59,1.59,0,0,0-1.2,1.5V72.8a1.71,1.71,0,0,1-1.7,1.8,1.79,1.79,0,0,1-1.8-1.8V53.3a1.59,1.59,0,0,0-1.2-1.5C17.2,49.3,8.1,29.7,7.5,8.1A1.47,1.47,0,0,0,6,6.6H4.8A2,2,0,0,1,3,4.7Z"/><path class="cls-1" d="M15.3,28c2.8,13.4,11.2,19.7,11.6,20a1.61,1.61,0,0,0,.9.3,1.43,1.43,0,0,0,1.2-.6,1.46,1.46,0,0,0-.3-2.1A31.83,31.83,0,0,1,18.3,27.5a1.56,1.56,0,0,0-1.8-1.2A1.48,1.48,0,0,0,15.3,28Z"/></g></g></svg>